<mxfile host="app.diagrams.net" modified="2022-11-21T20:11:45.810Z" agent="5.0 (Macintosh; Intel Mac OS X 10_15_7) AppleWebKit/605.1.15 (KHTML, like Gecko) Version/16.0 Safari/605.1.15" etag="2VDoTaPqwVkUPGv3P4y7" version="20.5.3" type="github">
  <diagram id="C5RBs43oDa-KdzZeNtuy" name="Page-1">
    <mxGraphModel dx="815" dy="458" grid="1" gridSize="10" guides="1" tooltips="1" connect="1" arrows="1" fold="1" page="1" pageScale="1" pageWidth="827" pageHeight="1169" background="#182E3E" math="0" shadow="0">
      <root>
        <mxCell id="WIyWlLk6GJQsqaUBKTNV-0" />
        <mxCell id="WIyWlLk6GJQsqaUBKTNV-1" parent="WIyWlLk6GJQsqaUBKTNV-0" />
        <mxCell id="KRRo6khkazPcEDHwpEVs-26" value="" style="shape=flexArrow;endArrow=classic;html=1;fontFamily=Verdana;fontSize=10;fontColor=#CCE5FF;endWidth=13.061224489795919;endSize=7.97;exitX=0.5;exitY=1;exitDx=0;exitDy=0;fillColor=#003300;strokeColor=#D5E8D4;width=28.571428571428573;strokeWidth=3;startSize=7;targetPerimeterSpacing=0;sourcePerimeterSpacing=0;" edge="1" parent="WIyWlLk6GJQsqaUBKTNV-1" source="KRRo6khkazPcEDHwpEVs-12">
          <mxGeometry width="50" height="50" relative="1" as="geometry">
            <mxPoint x="124.71000000000001" y="240" as="sourcePoint" />
            <mxPoint x="125" y="260" as="targetPoint" />
          </mxGeometry>
        </mxCell>
        <mxCell id="KRRo6khkazPcEDHwpEVs-27" value="YES" style="edgeLabel;html=1;align=center;verticalAlign=middle;resizable=0;points=[];fontSize=13;fontFamily=Verdana;fontColor=#D5E8D4;labelBackgroundColor=none;fontStyle=0" vertex="1" connectable="0" parent="KRRo6khkazPcEDHwpEVs-26">
          <mxGeometry x="-0.6001" y="-1" relative="1" as="geometry">
            <mxPoint x="1" y="6" as="offset" />
          </mxGeometry>
        </mxCell>
        <mxCell id="KRRo6khkazPcEDHwpEVs-2" value="&lt;a href=&quot;https://www.flaticon.com/free-icons/ship&quot; title=&quot;ship icons&quot; style=&quot;font-size: 10px;&quot;&gt;&lt;font color=&quot;#cce5ff&quot;&gt;Ship icons created by Freepik - Flaticon&lt;/font&gt;&lt;/a&gt;" style="text;whiteSpace=wrap;html=1;fontSize=10;fontFamily=Verdana;fontColor=#99CCFF;" vertex="1" parent="WIyWlLk6GJQsqaUBKTNV-1">
          <mxGeometry x="617" y="800" width="210" height="20" as="geometry" />
        </mxCell>
        <mxCell id="KRRo6khkazPcEDHwpEVs-6" value="" style="shape=flexArrow;endArrow=classic;html=1;fontFamily=Verdana;fontSize=10;fontColor=#CCE5FF;endWidth=18;endSize=8;exitX=0.5;exitY=1;exitDx=0;exitDy=0;fillColor=#660000;strokeColor=#F19C99;width=24.571428571428573;strokeWidth=3;startSize=7;targetPerimeterSpacing=0;sourcePerimeterSpacing=0;entryX=0.5;entryY=0;entryDx=0;entryDy=0;" edge="1" parent="WIyWlLk6GJQsqaUBKTNV-1" source="KRRo6khkazPcEDHwpEVs-4" target="KRRo6khkazPcEDHwpEVs-12">
          <mxGeometry width="50" height="50" relative="1" as="geometry">
            <mxPoint x="141" y="180.5" as="sourcePoint" />
            <mxPoint x="125" y="160" as="targetPoint" />
          </mxGeometry>
        </mxCell>
        <mxCell id="KRRo6khkazPcEDHwpEVs-7" value="NO" style="edgeLabel;html=1;align=center;verticalAlign=middle;resizable=0;points=[];fontSize=13;fontFamily=Verdana;fontColor=#F19C99;labelBackgroundColor=none;fontStyle=0" vertex="1" connectable="0" parent="KRRo6khkazPcEDHwpEVs-6">
          <mxGeometry x="-0.6001" y="-1" relative="1" as="geometry">
            <mxPoint x="1" y="6" as="offset" />
          </mxGeometry>
        </mxCell>
        <mxCell id="KRRo6khkazPcEDHwpEVs-3" value="" style="shape=flexArrow;endArrow=classic;html=1;fontFamily=Verdana;fontSize=10;fontColor=#CCE5FF;endWidth=13;endSize=7.97;exitX=1;exitY=0.5;exitDx=0;exitDy=0;fillColor=#003300;strokeColor=#D5E8D4;width=20;strokeWidth=3;entryX=0;entryY=0.5;entryDx=0;entryDy=0;" edge="1" parent="WIyWlLk6GJQsqaUBKTNV-1" source="KRRo6khkazPcEDHwpEVs-4">
          <mxGeometry width="50" height="50" relative="1" as="geometry">
            <mxPoint x="190" y="84.5" as="sourcePoint" />
            <mxPoint x="281" y="85" as="targetPoint" />
          </mxGeometry>
        </mxCell>
        <mxCell id="KRRo6khkazPcEDHwpEVs-5" value="YES" style="edgeLabel;html=1;align=center;verticalAlign=middle;resizable=0;points=[];fontSize=13;fontFamily=Verdana;fontColor=#D5E8D4;labelBackgroundColor=none;fontStyle=0" vertex="1" connectable="0" parent="KRRo6khkazPcEDHwpEVs-3">
          <mxGeometry x="-0.6001" y="-1" relative="1" as="geometry">
            <mxPoint x="13" y="-1" as="offset" />
          </mxGeometry>
        </mxCell>
        <mxCell id="KRRo6khkazPcEDHwpEVs-4" value="&lt;font style=&quot;font-size: 16px;&quot; color=&quot;#ffffff&quot;&gt;Is it a Ferry?&lt;/font&gt;" style="rounded=1;whiteSpace=wrap;html=1;strokeColor=#FFFFFF;strokeWidth=5;fontFamily=Verdana;fontSize=10;fontColor=#CCE5FF;fillColor=none;" vertex="1" parent="WIyWlLk6GJQsqaUBKTNV-1">
          <mxGeometry x="60" y="60" width="130" height="50" as="geometry" />
        </mxCell>
        <mxCell id="KRRo6khkazPcEDHwpEVs-18" value="" style="shape=flexArrow;endArrow=classic;html=1;fontFamily=Verdana;fontSize=10;fontColor=#CCE5FF;endWidth=13;endSize=8;exitX=1;exitY=0.5;exitDx=0;exitDy=0;fillColor=#660000;strokeColor=#F19C99;width=20.571428571428573;strokeWidth=3;startSize=7;targetPerimeterSpacing=0;sourcePerimeterSpacing=0;entryX=0;entryY=0.5;entryDx=0;entryDy=0;" edge="1" parent="WIyWlLk6GJQsqaUBKTNV-1" source="KRRo6khkazPcEDHwpEVs-12" target="KRRo6khkazPcEDHwpEVs-25">
          <mxGeometry width="50" height="50" relative="1" as="geometry">
            <mxPoint x="200" y="189.70999999999998" as="sourcePoint" />
            <mxPoint x="276.0000000000025" y="192.5" as="targetPoint" />
          </mxGeometry>
        </mxCell>
        <mxCell id="KRRo6khkazPcEDHwpEVs-19" value="NO" style="edgeLabel;html=1;align=center;verticalAlign=middle;resizable=0;points=[];fontSize=13;fontFamily=Verdana;fontColor=#F19C99;labelBackgroundColor=none;fontStyle=0" vertex="1" connectable="0" parent="KRRo6khkazPcEDHwpEVs-18">
          <mxGeometry x="-0.6001" y="-1" relative="1" as="geometry">
            <mxPoint x="13" y="-1" as="offset" />
          </mxGeometry>
        </mxCell>
        <mxCell id="KRRo6khkazPcEDHwpEVs-12" value="Does it have a Route Number?" style="rounded=1;whiteSpace=wrap;html=1;strokeColor=#FFFFFF;strokeWidth=5;fontFamily=Verdana;fontSize=16;fontColor=#E6E6E6;fillColor=none;spacing=2;spacingLeft=10;spacingRight=10;spacingTop=10;spacingBottom=10;" vertex="1" parent="WIyWlLk6GJQsqaUBKTNV-1">
          <mxGeometry x="50" y="160" width="150" height="60" as="geometry" />
        </mxCell>
        <mxCell id="KRRo6khkazPcEDHwpEVs-15" style="edgeStyle=none;shape=flexArrow;rounded=1;orthogonalLoop=1;jettySize=auto;html=1;exitX=0.5;exitY=1;exitDx=0;exitDy=0;labelBackgroundColor=default;fontFamily=Verdana;fontSize=16;fontColor=#E6E6E6;endArrow=classic;startSize=7;endSize=8;fillColor=#FFFFFF;" edge="1" parent="WIyWlLk6GJQsqaUBKTNV-1" source="KRRo6khkazPcEDHwpEVs-12" target="KRRo6khkazPcEDHwpEVs-12">
          <mxGeometry relative="1" as="geometry" />
        </mxCell>
        <mxCell id="KRRo6khkazPcEDHwpEVs-23" value="" style="group" vertex="1" connectable="0" parent="WIyWlLk6GJQsqaUBKTNV-1">
          <mxGeometry x="281" y="20" width="70" height="100" as="geometry" />
        </mxCell>
        <mxCell id="KRRo6khkazPcEDHwpEVs-10" value="Ferry" style="text;html=1;strokeColor=none;fillColor=none;align=center;verticalAlign=middle;whiteSpace=wrap;rounded=0;strokeWidth=6;fontFamily=Verdana;fontSize=16;fontColor=#FFFFFF;" vertex="1" parent="KRRo6khkazPcEDHwpEVs-23">
          <mxGeometry x="10" width="50" height="30" as="geometry" />
        </mxCell>
        <mxCell id="KRRo6khkazPcEDHwpEVs-9" value="" style="shape=image;verticalLabelPosition=bottom;labelBackgroundColor=default;verticalAlign=top;aspect=fixed;imageAspect=0;image=data:image/png,iVBORw0KGgoAAAANSUhEUgAAAIAAAACACAYAAADDPmHLAAAAAXNSR0IArs4c6QAAAKJlWElmTU0AKgAAAAgABgESAAMAAAABAAEAAAEaAAUAAAABAAAAVgEbAAUAAAABAAAAXgEoAAMAAAABAAIAAAExAAIAAAARAAAAZodpAAQAAAABAAAAeAAAAAAAAAAXAAAAAQAAABcAAAABd3d3Lmlua3NjYXBlLm9yZwAAAAOgAQADAAAAAQABAACgAgAEAAAAAQAAAICgAwAEAAAAAQAAAIAAAAAASwqWDAAAAAlwSFlzAAADigAAA4oBp4z1HwAAActpVFh0WE1MOmNvbS5hZG9iZS54bXAAAAAAADx4OnhtcG1ldGEgeG1sbnM6eD0iYWRvYmU6bnM6bWV0YS8iIHg6eG1wdGs9IlhNUCBDb3JlIDYuMC4wIj4KICAgPHJkZjpSREYgeG1sbnM6cmRmPSJodHRwOi8vd3d3LnczLm9yZy8xOTk5LzAyLzIyLXJkZi1zeW50YXgtbnMjIj4KICAgICAgPHJkZjpEZXNjcmlwdGlvbiByZGY6YWJvdXQ9IiIKICAgICAgICAgICAgeG1sbnM6dGlmZj0iaHR0cDovL25zLmFkb2JlLmNvbS90aWZmLzEuMC8iCiAgICAgICAgICAgIHhtbG5zOnhtcD0iaHR0cDovL25zLmFkb2JlLmNvbS94YXAvMS4wLyI+CiAgICAgICAgIDx0aWZmOk9yaWVudGF0aW9uPjE8L3RpZmY6T3JpZW50YXRpb24+CiAgICAgICAgIDx4bXA6Q3JlYXRvclRvb2w+d3d3Lmlua3NjYXBlLm9yZzwveG1wOkNyZWF0b3JUb29sPgogICAgICA8L3JkZjpEZXNjcmlwdGlvbj4KICAgPC9yZGY6UkRGPgo8L3g6eG1wbWV0YT4K56DsKAAAERNJREFUeAHtnQ3QFVUZx0H8CMVEQFBwVNKkFBIxRU0dQwK1QDNHrVSwKU3FmcYsZ2x0oFGryamZTCk/mvGjptRmyhTK8gNKTVT8JjVI/EwNRQG/Efr9X3dl77nP7p7du3vfe/fdZ+b/7p5znvN8nec95+zevXv79esDtH79+mPAIuBL4j2mD4Sm+i4ykKPAe74jH+FTn1FVj9BGVXcQ/44FG+fwU33Ut9LUFxLgoy2MYCt9W1Dbvq59IQHaF80u1NRXE2BOf4cYuzldOH4tm9xXE6DlwFVFQJ0AVRnJnH7UCZAzcFXpVidAVUYypx91AuQMXFW61QlQlZHM6UedADkDV5VudQJUZSRz+lEnQM7AVaVbnQBVGcmcftQJkDNwVelWJ0BVRjKnH3UC5AxcVbrVCVCVkay6HzyetSu4CrwNOpVkm2zctVvGo3+3GEpQ52HrYV1i73weNzi8G2ztigRg8IcRzJdAtyxZ67B1BEmwotOToFsCOqiLBl9jrrjK5o6nbkmAjg9ktxqY53HpTvH1aabYnTrBGJao5dixYyfYktWGegbIGrGK8dcJULEBzepOnQBZI1Yx/joBKjagWd3p9fsAbKD0LdyzwN5Zje9y/nux/yI2stf1ph+9mgAMvr59uxx089VIK+O3ls47kQTPtyKklb69vQTk/eZuKz53Ut9e/wZybydA5b9965FtvRqD3k4Aj/jULGVGoBMTYA5rYiWJgZxT5mDmkd2JCZDHj7pPzgjUCZAzcFXpVidAVUYypx91AuQMXFW6lX4jiJs92xGs74ETwZZVCVzJfqxG/tXgAnbD/y1TVzsS4FIcOLVMJyosey4JcFqZ/rUjAVbhQP2fn28UV5MApd4oakcCrM/ne91LEdANkTIjUW8Cy4xuLbtfPzaBTVR2XFA4Evy2SXH+Cska2Qa7mywsW2fp8ps8oqIspYjeGJwJVoGiSTIlu7SPri2Dy4pV2+S2yyn0HAgesfRF6vQG8B+DiyJ14anq1Jb2ZnHpOLCMAIaGRI9l6GmrzKgz4XmRBiBzOND38dLoDhh2l26Osw3m2UHb7rSJN42kc7j6FEWWwqJk95qcspxC7kbgdLDS0hGpe5Hz46MBoBybACGf+gD1TSLplg2FbKYtRaE9XXsswylkTgT3W7IjdWs5vxhs5QaPutQEUB/1DWRIVhLJlomunqxlS0FWGR3HX6RTyBoKLgPrLLmRurs53zMuGLR5JUDYX7KAZCaRbJJtQ8N+WY+W8KwyOo6/CKeQ0R98Hayw5EXq1C6+xJsntGdKAAVVMgPZhdhgDRTym8ji66q6Jo+oyOIA7L7/fZfD6/XfB1/mBAhtlg4gXS3NQqG86BGZTRRt78rzJo+o8HEENt/1dzG8+/rIDHngz50AERn7Ike6kyh2HxLKiR4tQdH2rjzP4xR9TgBpO/DX4JkFBmQNDH1aTgDplO7ABtmSRPLlhDQ7LQFpfTq+PYtT8I4FC6w+Tt01lEfkdZ6+hSRAqF+2ANmURvJtbNjPPVqdXZ6uK/s4Bc8gcBFIuwv3KDwHtRoEZBSaAKE9sg3IxiSSj/K16Q0iVqdQdtce05yiXb/q+ZzFF6lbzflZwOs+PHwzwQPgX0DfPWwg6rwTAN5NwHngZvAtkHaFoc8jZKtsTiL53GCbxdxgeDcW4pyifgz4q9Xu1F1HeXtf3+HdB7wfkaGN2M7R/pSzJMCvIrJ0el5UVtw5fNsD2Z5GisEYybEY4+R3Tb3lFHUXgHdi2sLqJzmZktVR+liD+9WonBie2VGe8BzeN0GUHg/bfI50nALkSxIpFopJE/noaIWnkHvYOQw4hz6bxvR7i/pzwTgehrklhiep+n6n8R3Ki5y6LMXHHOZM3+QNfBiHDPkk3yxSLBST6lFTSidX3Ejz6FajgAyt2a8A7QH0NHIDUWfNErMbmIICvB8HLwORLufGW3w+dfQdDeSjN/nI7VgevNzM09On4Jvu4wh82pRNA9po7ePTx+Whn3cCqC/8ut7Xq2rNew7Ua+P3FfA5sLWrzy3DMx08BXxoM7d/V5TxzHftOx/egT5Owbc/iF5maYOX+bFp+mRKgCTbkDUE3ANCepWTU0Da1cJAeOR7KXuhJJtLbcOhUeB6kEa3wOD1UmX4dFt4LlgHXFqQ1SEEFJkAU12DgvLdHPdIsw0ezSyKRRoppnqjSmcSxmka/DbIfP2b5BHyvgReAHH0j6T+VhuCikyA4+IMoz72po9rF7y+90MUY6/7Ia6O0soY5Ps8nnkHzDIMmbqO/iNIordojL21aslVHX2KTAA9mZR2+/oZeI6Msyesh8f3jugj8JbyXGJoi9cRI4aDq0AaJd4DjypDkAJ6BliVIlTrbuoUG5UdntOvsASQTORpH3AlsJYoqj8kXQHsGNoRd4RnLEhLKglV7At9LjHOpoZ6lGqQTgUrQRK9RGPqp2ChcHg/BTSwSaTEUILkvodB30ITIGL/AciOblIpNtEb1HwXpE7j8OhTUcUwiTQGGovc8Qjt9zqiaG9wL0gi3Yr9ORjsIxS+geCHQGtmEv2BRu/bwnG6kVFKAkgfsnWZejbQQCeRpvHPxNkY1sMzGCiWimkSaUzKfdciCo4HaYb8E54JoQNpR3gng6UgiZ6n8ag0Wb7tyCotAUIb0LETuAkkkZaMy8GQsF/cEZ4JQLFNIo1NwxPQcfIy1yN4KEi6ZtWdt2+AxOvfUDF8w8DVIInk0CWg0G/IIq/0BIj4eRT6ngVJpDuNM8I+cUd4+gPFWLGOI42R16NxcXrMeoTuHKNRWXxFFqXwnghWgCTSFJnpUS/TcKMSuW1LAKlHn3b3PwFrQRLdQWPqvRF49M+omMdtOhs+/TRCkL0KZVqn3U/GqFo/M4s0+HXLNIl0aXcO2CSL3Cy8yG5rAoS2oXc8SJvGl8PT9F2GUEb0CN9M4JLGyOvOqmR57xz5VEufZN0aNSA4z5ptFxsywirJ16eAF4L3wsqqHPHpQXzZH+j29WsxfukycVZMm1ttxf7WYKxcXrPsnQBB75sMKV8w6pKqVhqNK6ibgeGTwVKjvTJV+LcOzMWhT4DfxDj2cky9W23F3hojt1++MlOL7vNb5H1pRudzHQG6maGfhWsboa9XlgDLQWw5BDwJQlrMSWo8xRN2cI7lfl6AMj1r59IplnNxdXTeD5wMer6tG8dXVj16OyYB5CP2bAr0BZjpwGvvA58+cXRpcdaYZV0CJP9PhpJpRl1sFVPg3eAy4D5tE9unyg3E4V3wALgR+O59rJhnnv7zJIClZBKp6L3zrPJgtsO3INaTDF3W2BhsG6ryJIB+6uSlDSJ6zjT4hzh1dbG8CCjW7j+cxkRjk4kyJwBTlL7bN8/QYu1IDba6qoAIWLGeF4xNJvGZEyCQbk01n8+kuWZuJQJWrK0xSdWRNwH0uPa7jnRdlox36upiwREIYuxeJmosNCaZKVcCMNWsQZP1LJ61M81sVN0hMQJWjO8IxiSxo9WYKwECQdaUY61Nlt66Ln8ErBhbY+GloegE0MMiI7w010yZIxDE1nroo/0JwJTzHzxY4nihZwEOd+rqYnERUGzd5y2WMBZP5VXRygwgnVbmWVNUXvvqfo0RsGJrjUFjr4RSGQkwhalKX3asqcAIBDGdYojs1QS4C4NedYwaRPlgp64uth4BxVSxjZJirzHITS3NAKw976P5z4Z2a6oy2OqqDBGwYjo/GIMMYhpZW0qAQJQ1BVnGNmquS1kjYMXUin0muUUkgGaAtY7W0axZuzl1dTFnBIJYjna6K+bW7OuwJRdbTgCmID3idaehxspYg62u8oiAFcs7iX3cc4UeIj9gaTkBAk3WVGQZ7W1YzdgQAev2rxXzhk4+hTITYH+mrtRvvPgY2Zd5ghjuZ8SgcxKAqehxDFzmGDmA8mFOXV3MHgHFULGM0rIg5tG6XOdFzQBSbmVkvQzkGpaGTlYMrecyGzr5FspOgEOZwlK/Bu1rbF/jC2J3qOG39c9msKVXFZkAC1G32lE5mHLqV6CdPnVxQwQO4FQxjNIqCop1IVRYArAmxT2VYu1gCzG+Dwixpv9biLXvo+OpISosAQJN1tpkOZFqWM3QEwErdoVN/9JQdALMR+a6HtM3/BnDWrbLhmJ95hOBIGY9L5GO8Cu21hPZEZZsp4UmAFOTvtS4yDDBymSDra6KRMCK2SJi/L8IT8unhSZAYI01RVnOtGx8xQVYMbOW2JbC0K4EOIgprdDXvLTkdYd3DmJ1kGGm9c9lsPlXFZ4ATFEPof5ZxwR943WqU1cX4yOgWLnfEn6W2D4c3yVfS+EJEJhxs2GONaUZbHUVEbBiVfh/vyJdVgJYxh7G1FaWvspkTRAjPf3rkhVTlydzuawBuQ1L3nSs2YbyRKeuLjZHQDEa5lQrlopp4VRKArBWvYWl1gulrKmtcKe6XKB151Qvfnq7DL9KSYDAUGvKqhMgfRStGBVy+cfy8jGg3114Duj1s8PL/KTO2gjqZdA7kM3PpMeh73EoNng9zvDciqXBFl+F7M/SegMIH9I5nfMBpSUAg6z3+z6Akj1BlJThl0Yr8p4jfzh9DwT7BtDXprcEg4Aemnw6wFKOC8Ht2PUKx7YRNu6OsslgrwAjOepx+nUBVnPU2z2eBGuAS4ux+QW3MksZG/QSr4uBe2k5LXMCIEzvtzsS6HVkEigZ4VGOLAEPYvR9HLUMFJ4A2DAJuaeBI0CcD5vRtlsADv3OAHpV6+85lrn06a1fW6HjBDATaOCTaASNu4C4j82tpTRJ3odt2KHY/BTM+rCy8eTGxmJMCUGaur8PHgO+9DiMegegS3oV7OYxqhKr6fdFoHcIl0GzE5V7NGLUEKA4vVaggbkeq0O/Xkt7X4IdT9C2XaJbMGjTkPazLQk6YpumJyp2GpGiV8ovipVWTMNsR613EfV68/kPgH7MomjSG9MXgFlg2zSj4NHA/wIk/fbCzbRrlmr6qnGPfBr1H3oOOAtoKi2aLmeJODlJKDYMpV3vwjkJHAzKpuUo0N7kGmx70UcZNu4M3zfBqWALnz4t8mjf8Hegqft5sBLo4ZAxQMudlpEJIIkupPFcfJSs5gTAqSnUXwm0oSqLtBHT2vQIeAzo5121j9Dm7RBwBNDmbgDwoSdgugFo/yHZIbThmhrg0xx91n5tHueD24E+13iIYOn9/FpP9XjWMKDn9L4M9gFppLeqLQR/Aw8C+avgDwSSJbskRzK3BmXRGwg+CV+ujyroHy3g5NmUlSFJgVKA/g2WRo7abW8PxoKDwThQNknnteA6nHo4TRm+DYFnGvgO0M48C+nGlgYsC70O81xwBfYtS+uIfR+B51igGUVXNUXSXQg7BTseNYWifAuQ9lPn+iUKrS07mEIilfDsBXSjocjNEOJ6aBl/vwb0H5mZ6NcfHAHuAWWQ9gHng9z/zfTdA+iGzeugFdLvLc4ADf/oDUGjUT/9lrSz9h74BsEUkKvE0kuNHwKt0hIEzAS5Bt61TWVkaXN5GyiC1iDkR0B7l0IIWZuDGWAh8CVtGv8CjgZaVhNJ/w0/g+OMGK5F1B/H1JH7HTShXPQcwLmmt0kg+fIj7PTBRud3FH+NDYs3VBd7hm1ag2eCo8E2IAvdD/M1QDauyNIxCy826gpgPNgDaKndEoS0ihPtV7TH0Eun9eIIL1ICaDepzZJLl1BxJsLedRtaLaNT+4WJASZw1J5Dm5Q1wVG723lgAfp7dqucl07YpdllMtBarCCPAsNBuBl9m3PtPZYDJeS12LeEY/cSTv8SRElTmXa4NREBYqGfjh8JtgXxa2m3RguntgPa3OnevX6J6pPd6kttd/YI/B/L0/tXrwfHxgAAAABJRU5ErkJggg==;" vertex="1" parent="KRRo6khkazPcEDHwpEVs-23">
          <mxGeometry y="30" width="70" height="70" as="geometry" />
        </mxCell>
        <mxCell id="KRRo6khkazPcEDHwpEVs-25" value="&lt;font color=&quot;#ffffff&quot; style=&quot;font-size: 15px;&quot;&gt;Other road types&lt;/font&gt;" style="ellipse;whiteSpace=wrap;html=1;rounded=1;strokeColor=#FFFFFF;strokeWidth=5;fontFamily=Verdana;fontSize=15;fontColor=#F19C99;fillColor=none;spacing=10;align=center;" vertex="1" parent="WIyWlLk6GJQsqaUBKTNV-1">
          <mxGeometry x="276" y="150" width="80" height="80" as="geometry" />
        </mxCell>
      </root>
    </mxGraphModel>
  </diagram>
</mxfile>
